<?xml version="1.0" encoding="utf-8"?>
<!-- Generator: Adobe Illustrator 27.9.4, SVG Export Plug-In . SVG Version: 9.03 Build 54784)  -->
<svg version="1.1" id="Layer_1" xmlns="http://www.w3.org/2000/svg" xmlns:xlink="http://www.w3.org/1999/xlink" x="0px" y="0px"
	 viewBox="0 0 1200 400" style="enable-background:new 0 0 1200 400;" xml:space="preserve">
<style type="text/css">
	.st0{fill:#FFFFFF;stroke:#231F20;stroke-miterlimit:10;}
	.st1{fill:#AED5E2;}
	.st2{fill:#F6BF85;}
	.st3{fill:#FABEBE;}
	.st4{fill:url(#SVGID_1_);}
	.st5{fill:url(#SVGID_00000029741760076162254630000002205281554197580672_);}
	.st6{fill:url(#SVGID_00000123418727024599177650000007734044990680028851_);}
	.st7{fill:url(#SVGID_00000066497222120223346500000013356318133916484540_);}
	.st8{fill:url(#SVGID_00000121994688922919110910000012472315132730753925_);}
</style>
<g id="Outer">
	<path class="st0" d="M1200,361.1"/>
	<path class="st1" d="M0,282.9c65.7,20.3,168.6,45.8,297,49.8c116.3,3.6,139.5-14,239.1-4.4C693,343.3,755.9,354,878.3,372.1
		c79.1,11.7,170.7,51.5,321.7-19v-232c-19.9-9.6-55.2-24-100.3-28.4c-140.6-13.8-195.8,86.9-345.8,88
		c-69.1,0.5-55.3-20.9-177.8-35.6c-109.5-13.1-167.2-1.5-249.8-0.9c-77,0.6-188.2-8.2-326.3-53.3"/>
	<path class="st1" d="M891.7,124.8"/>
	<path class="st1" d="M1122,487.3"/>
	<path class="st1" d="M931.7,507.8"/>
</g>
<g id="Middle">
	<path class="st2" d="M0,119.3c45.6,16.5,119,38.8,211.7,47.1c93.1,8.3,125.8-4.6,219.6,2.7c149,11.6,140.8,50.1,242.7,51.6
		c145.7,2,185.1-76.5,342.2-80c77.9-1.7,142,16,183.9,31.1v138.7c-18.8-2.2-49-5-86.1-5.3c-143.3-1.2-196.7,36.7-315.6,40.9
		c-54.2,1.9-32.5-6.4-197.3-24c-123.5-13.2-172.8-12.6-272-20.4c-79.1-6.3-191.6-18.1-329-42.7"/>
	<path class="st2" d="M1146.8,352.2"/>
</g>
<g id="Inner">
	<path class="st3" d="M0,250c31.9,5.2,81.4,12.4,142.3,17.8c132.9,11.7,190.9,3,308.4,12.4c130.1,10.5,151.9,42.7,242.7,46.2
		c186.2,7.3,213.2-72.4,396.4-52.4c48.6,5.3,87.3,14.4,110.1,20.4v-79.1c-112.3-35.9-200.9-37-259.4-32
		c-161.1,13.7-225.9,68.2-360.9,39.1c-72-15.5-67.6-23-152.9-37.3c-86.5-14.5-126.3,3.3-227.6,1.8c-47.6-0.7-116-5.8-199.2-26.7"/>
</g>
<g id="Blobs">
	<linearGradient id="SVGID_1_" gradientUnits="userSpaceOnUse" x1="155.9726" y1="-124.2734" x2="154.9726" y2="151.7266">
		<stop  offset="0" style="stop-color:#FFFFFF"/>
		<stop  offset="1" style="stop-color:#F6BF85"/>
	</linearGradient>
	<path class="st4" d="M79-34.9c101.3-16.3,142.1-17.8,170.7,1.3c18.9,12.6,30,39.2,23.1,56c-11,26.9-66.8,25.6-93.3,24.9
		C105.7,45.5,33.6,14.5,36.2,0.2C37.3-5.9,38.8-28.5,79-34.9L79-34.9z"/>
	
		<linearGradient id="SVGID_00000090266497955474878760000003422924590393196968_" gradientUnits="userSpaceOnUse" x1="517.6805" y1="394.0725" x2="514.1205" y2="262.5226" gradientTransform="matrix(1 0 0 -1 0 399.8898)">
		<stop  offset="0" style="stop-color:#FFFFFF;stop-opacity:0"/>
		<stop  offset="1" style="stop-color:#FABEBE"/>
	</linearGradient>
	<path style="fill:url(#SVGID_00000090266497955474878760000003422924590393196968_);" d="M421.9,96.8
		c25.9,20.1,63.6,18.4,73.8,17.8c33.5-2,124.3-11.4,124.4-31.1c0.1-13.4-42.1-31.8-80.9-29.3c-40.6,2.6-41.2,11.6-87.1,9.7
		c-9.1-0.4-38.9,13.2-40.9,18.7C409.6,87.2,419,94.5,421.9,96.8L421.9,96.8z"/>
	
		<linearGradient id="SVGID_00000016754519045869475880000017362457822717689251_" gradientUnits="userSpaceOnUse" x1="1026.8865" y1="485.8474" x2="1028.6665" y2="347.1874" gradientTransform="matrix(1 0 0 -1 0 399.8898)">
		<stop  offset="0" style="stop-color:#AED5E2;stop-opacity:0"/>
		<stop  offset="1" style="stop-color:#F6BF85"/>
	</linearGradient>
	<path style="fill:url(#SVGID_00000016754519045869475880000017362457822717689251_);" d="M976.7-20.2C976.5-9.1,997.8-1,1003.3,1.1
		c31,11.9,73.2,8.1,75.6-3.6c2.9-14.6-54.9-48.9-88-32.9C989-34.4,976.8-28.5,976.7-20.2L976.7-20.2z"/>
	
		<linearGradient id="SVGID_00000086674345695619161160000010473092997451641005_" gradientUnits="userSpaceOnUse" x1="277.8445" y1="125.0189" x2="284.0645" y2="20.1289" gradientTransform="matrix(1 0 0 -1 0 399.8898)">
		<stop  offset="0" style="stop-color:#AED5E2"/>
		<stop  offset="1" style="stop-color:#F6BF85"/>
	</linearGradient>
	<path style="fill:url(#SVGID_00000086674345695619161160000010473092997451641005_);" d="M165.4,337c-1-6.3,31.8-19.1,63.1-24.9
		c53.1-9.9,92.7,2.2,132.4,14.2c32.1,9.7,37.1,15.8,37.3,20.4c0.5,10-21,19.4-34.7,23.1c-6,1.7-22.6,5.5-66.7-3.6
		c-37-7.6-46.3-1.5-74.7-5.2c-12.8-1.7-19.2-5.4-40.8-9C163,349,165.8,339.1,165.4,337L165.4,337z"/>
	
		<linearGradient id="SVGID_00000072993477217903316790000004211096909179109780_" gradientUnits="userSpaceOnUse" x1="1005.593" y1="-43.0002" x2="1005.593" y2="55.6698" gradientTransform="matrix(1 0 0 -1 0 399.8898)">
		<stop  offset="0" style="stop-color:#F6BF85"/>
		<stop  offset="1" style="stop-color:#FABEBE"/>
	</linearGradient>
	<path style="fill:url(#SVGID_00000072993477217903316790000004211096909179109780_);" d="M920.1,362.9c-0.7-7.4,35.6-20,70.2-22.2
		c41.8-2.8,95.9,8.5,100.4,31.1c1.4,7-2.4,12.9-2.7,13.3c-3.8,5.7-12.7,10.9-58.7,6.2c-15.7-1.6-17-2.5-96-22.2
		C926.5,367.4,920.4,365.9,920.1,362.9L920.1,362.9z"/>
</g>
</svg>
