<?xml version="1.0" encoding="UTF-8"?>
<svg xmlns="http://www.w3.org/2000/svg" version="1.1" xmlns:xlink="http://www.w3.org/1999/xlink" viewBox="0 0 1200 400">
  <defs>
    <style>
      .cls-1 {
        fill: url(#linear-gradient);
      }

      .cls-1, .cls-2, .cls-3, .cls-4, .cls-5, .cls-6, .cls-7, .cls-8 {
        stroke-width: 0px;
      }

      .cls-2 {
        fill: url(#linear-gradient-5);
      }

      .cls-9 {
        fill: #fff;
        stroke: #231f20;
        stroke-miterlimit: 10;
      }

      .cls-3 {
        fill: #fabebe;
      }

      .cls-4 {
        fill: url(#linear-gradient-2);
      }

      .cls-5 {
        fill: url(#linear-gradient-3);
      }

      .cls-6 {
        fill: url(#linear-gradient-4);
      }

      .cls-7 {
        fill: #f6bf85;
      }

      .cls-8 {
        fill: #aed5e2;
      }
    </style>
    <linearGradient id="linear-gradient" x1="185.43" y1="-63.29" x2="178.32" y2="214.05" gradientUnits="userSpaceOnUse">
      <stop offset="0" stop-color="#aed5e2"/>
      <stop offset="1" stop-color="#f6bf85"/>
    </linearGradient>
    <linearGradient id="linear-gradient-2" x1="617.68" y1="71.29" x2="614.12" y2="202.84" gradientUnits="userSpaceOnUse">
      <stop offset="0" stop-color="#aed5e2"/>
      <stop offset="1" stop-color="#fabebe"/>
    </linearGradient>
    <linearGradient id="linear-gradient-3" x1="1069.88" y1="30.5" x2="1071.66" y2="169.16" xlink:href="#linear-gradient"/>
    <linearGradient id="linear-gradient-4" x1="277.86" y1="274.87" x2="284.08" y2="379.76" xlink:href="#linear-gradient"/>
    <linearGradient id="linear-gradient-5" x1="1005.6" y1="442.89" x2="1005.6" y2="344.22" gradientUnits="userSpaceOnUse">
      <stop offset="0" stop-color="#f6bf85"/>
      <stop offset="1" stop-color="#fabebe"/>
    </linearGradient>
  </defs>
  <g id="Outer">
    <path class="cls-9" d="M1200,361.07"/>
    <path class="cls-8" d="M0,282.89c65.66,20.32,168.62,45.82,297,49.78,116.29,3.58,139.52-14.02,239.11-4.44,156.89,15.09,219.8,25.72,342.22,43.87,79.09,11.73,170.69,51.52,321.67-18.98V121.11c-19.95-9.56-55.15-24-100.33-28.44-140.59-13.83-195.84,86.94-345.78,88-69.1.49-55.34-20.93-177.78-35.56-109.47-13.08-167.16-1.53-249.78-.89-77.01.6-188.24-8.19-326.33-53.33"/>
    <path class="cls-8" d="M891.67,124.82"/>
    <path class="cls-8" d="M1122,487.33"/>
    <path class="cls-8" d="M931.67,507.78"/>
  </g>
  <g id="Middle">
    <path class="cls-7" d="M0,119.33c45.63,16.54,118.97,38.83,211.67,47.11,93.13,8.32,125.81-4.63,219.56,2.67,149.02,11.61,140.8,50.14,242.67,51.56,145.73,2.02,185.1-76.54,342.22-80,77.88-1.71,141.99,15.96,183.89,31.11v138.67c-18.83-2.19-49.01-5.02-86.11-5.33-143.29-1.22-196.7,36.73-315.56,40.89-54.16,1.9-32.45-6.35-197.33-24-123.48-13.22-172.84-12.57-272-20.44-79.09-6.28-191.62-18.13-329-42.67"/>
    <path class="cls-7" d="M1146.78,352.22"/>
  </g>
  <g id="Inner">
    <path class="cls-3" d="M0,250c31.92,5.2,81.42,12.43,142.33,17.78,132.9,11.66,190.92,3,308.44,12.44,130.07,10.46,151.94,42.68,242.67,46.22,186.17,7.27,213.2-72.36,396.44-52.44,48.63,5.29,87.34,14.41,110.11,20.44v-79.11c-112.3-35.9-200.91-36.97-259.44-32-161.13,13.69-225.9,68.17-360.89,39.11-72.05-15.51-67.64-23.03-152.89-37.33-86.47-14.51-126.3,3.3-227.56,1.78-47.62-.71-116.04-5.81-199.22-26.67"/>
  </g>
  <g id="Blobs">
    <path class="cls-1" d="M105,49.11c101.3-16.28,142.06-17.76,170.67,1.34,18.88,12.6,30.01,39.17,23.11,56-11.03,26.92-66.76,25.55-93.33,24.89-73.79-1.83-145.82-32.82-143.22-47.11,1.11-6.09,2.58-28.66,42.78-35.12Z"/>
    <path class="cls-4" d="M521.9,162.23c25.92,20.13,63.62,18.37,73.78,17.78,33.53-1.96,124.33-11.43,124.44-31.11.08-13.44-42.13-31.83-80.89-29.33-40.64,2.62-41.18,11.56-87.12,9.73-9.07-.36-38.9,13.18-40.88,18.72-1.67,4.64,7.72,11.93,10.67,14.22Z"/>
    <path class="cls-5" d="M1019.67,96.25c-.2,11.08,21.13,19.22,26.67,21.33,31.04,11.85,73.2,8.07,75.56-3.56,2.95-14.55-54.89-48.9-88-32.89-1.89.91-14.07,6.8-14.22,15.11Z"/>
    <path class="cls-6" d="M165.44,336.95c-.99-6.26,31.84-19.08,63.11-24.89,53.07-9.85,92.73,2.18,132.44,14.22,32.1,9.73,37.11,15.81,37.33,20.44.48,10-21.01,19.36-34.67,23.11-6.03,1.66-22.61,5.53-66.67-3.56-37.04-7.64-46.29-1.52-74.67-5.21-12.84-1.67-19.18-5.39-40.84-9.02-18.44-3.09-15.71-12.94-16.05-15.1Z"/>
    <path class="cls-2" d="M920.11,362.89c-.72-7.41,35.61-19.95,70.22-22.22,41.85-2.75,95.88,8.54,100.44,31.11,1.42,7.01-2.38,12.9-2.67,13.33-3.81,5.73-12.67,10.92-58.67,6.22-15.72-1.6-17.04-2.45-96-22.22-6.9-1.73-13.04-3.26-13.33-6.22Z"/>
  </g>
</svg>