<?xml version="1.0" encoding="UTF-8"?>
<svg xmlns="http://www.w3.org/2000/svg" version="1.1" xmlns:xlink="http://www.w3.org/1999/xlink" viewBox="0 0 1200 400">
  <defs>
    <style>
      .cls-1 {
        fill: url(#linear-gradient-2);
      }

      .cls-2 {
        fill: #f6bf85;
      }

      .cls-3 {
        fill: #fff;
        stroke: #231f20;
        stroke-miterlimit: 10;
      }

      .cls-4 {
        fill: url(#linear-gradient-4);
      }

      .cls-5 {
        fill: url(#linear-gradient-3);
      }

      .cls-6 {
        fill: url(#linear-gradient-5);
      }

      .cls-7 {
        fill: #aed5e2;
      }

      .cls-8 {
        fill: #fabebe;
      }

      .cls-9 {
        fill: url(#linear-gradient);
      }
    </style>
    <linearGradient id="linear-gradient" x1="185.4" y1="465.3" x2="178.3" y2="187.9" gradientTransform="translate(0 402) scale(1 -1)" gradientUnits="userSpaceOnUse">
      <stop offset="0" stop-color="#aed5e2"/>
      <stop offset="1" stop-color="#f6bf85"/>
    </linearGradient>
    <linearGradient id="linear-gradient-2" x1="617.7" y1="330.7" x2="614.1" y2="199.2" gradientTransform="translate(0 402) scale(1 -1)" gradientUnits="userSpaceOnUse">
      <stop offset="0" stop-color="#aed5e2"/>
      <stop offset="1" stop-color="#fabebe"/>
    </linearGradient>
    <linearGradient id="linear-gradient-3" x1="1069.9" y1="371.5" x2="1071.7" y2="232.8" gradientTransform="translate(0 402) scale(1 -1)" gradientUnits="userSpaceOnUse">
      <stop offset="0" stop-color="#aed5e2"/>
      <stop offset="1" stop-color="#f6bf85"/>
    </linearGradient>
    <linearGradient id="linear-gradient-4" x1="277.8" y1="127.1" x2="284.1" y2="22.2" gradientTransform="translate(0 402) scale(1 -1)" gradientUnits="userSpaceOnUse">
      <stop offset="0" stop-color="#aed5e2"/>
      <stop offset="1" stop-color="#f6bf85"/>
    </linearGradient>
    <linearGradient id="linear-gradient-5" x1="1005.6" y1="-40.9" x2="1005.6" y2="57.8" gradientTransform="translate(0 402) scale(1 -1)" gradientUnits="userSpaceOnUse">
      <stop offset="0" stop-color="#f6bf85"/>
      <stop offset="1" stop-color="#fabebe"/>
    </linearGradient>
  </defs>
  <!-- Generator: Adobe Illustrator 28.7.1, SVG Export Plug-In . SVG Version: 1.2.0 Build 142)  -->
  <g>
    <g id="Layer_1">
      <g id="Outer">
        <path class="cls-3" d="M1200,361.1"/>
        <path class="cls-7" d="M0,232.8c65.7,20.3,163.6,28.2,292,32.2,116.3,3.6,155.4-.6,255,9,156.9,15.1,209.6-15.1,332,3,79.1,11.7,163,51.5,314-19l7-136.9c-19.9-9.6-55.2-24-100.3-28.4-140.6-13.8-195.8,86.9-345.8,88-69.1.5-55.3-20.9-177.8-35.6-109.5-13.1-167.2-1.5-249.8-.9-77,.6-188.2-8.2-326.3-53.3"/>
        <path class="cls-7" d="M891.7,124.8"/>
        <path class="cls-7" d="M1122,487.3"/>
        <path class="cls-7" d="M931.7,507.8"/>
      </g>
      <g id="Middle">
        <path class="cls-2" d="M0,119.3c45.6,16.5,119,38.8,211.7,47.1,93.1,8.3,125.8-4.6,219.6,2.7,149,11.6,140.8,50.1,242.7,51.6,145.7,2,185.1-76.5,342.2-80,77.9-1.7,142,16,183.9,31.1v138.7c-18.8-2.2-49-5-86.1-5.3-143.3-1.2-196.7,36.7-315.6,40.9-54.2,1.9-32.5-6.4-197.3-24-123.5-13.2-172.8-12.6-272-20.4C249.9,295.3,137.4,283.4,0,258.9"/>
        <path class="cls-2" d="M1146.8,352.2"/>
      </g>
      <g id="Inner">
        <path class="cls-8" d="M0,250c31.9,5.2,81.4,12.4,142.3,17.8,132.9,11.7,190.9,3,308.4,12.4,130.1,10.5,151.9,42.7,242.7,46.2,186.2,7.3,213.2-72.4,396.4-52.4,48.6,5.3,87.3,14.4,110.1,20.4v-79.1c-112.3-35.9-200.9-37-259.4-32-161.1,13.7-225.9,68.2-360.9,39.1-72-15.5-67.6-23-152.9-37.3-86.5-14.5-126.3,3.3-227.6,1.8-47.6-.7-116-5.8-199.2-26.7"/>
      </g>
      <g id="Blobs">
        <path class="cls-9" d="M105,49.1c101.3-16.3,142.1-17.8,170.7,1.3,18.9,12.6,30,39.2,23.1,56-11,26.9-66.8,25.6-93.3,24.9-73.8-1.8-145.8-32.8-143.2-47.1,1.1-6.1,2.6-28.7,42.8-35.1h0Z"/>
        <path class="cls-1" d="M521.9,162.2c25.9,20.1,63.6,18.4,73.8,17.8,33.5-2,124.3-11.4,124.4-31.1,0-13.4-42.1-31.8-80.9-29.3-40.6,2.6-41.2,11.6-87.1,9.7-9.1-.4-38.9,13.2-40.9,18.7-1.7,4.6,7.7,11.9,10.7,14.2h0Z"/>
        <path class="cls-5" d="M1019.7,96.2c-.2,11.1,21.1,19.2,26.7,21.3,31,11.9,73.2,8.1,75.6-3.6,2.9-14.6-54.9-48.9-88-32.9-1.9.9-14.1,6.8-14.2,15.1h0Z"/>
        <path class="cls-4" d="M165.4,337c-1-6.3,31.8-19.1,63.1-24.9,53.1-9.9,92.7,2.2,132.4,14.2,32.1,9.7,37.1,15.8,37.3,20.4.5,10-21,19.4-34.7,23.1-6,1.7-22.6,5.5-66.7-3.6-37-7.6-46.3-1.5-74.7-5.2-12.8-1.7-19.2-5.4-40.8-9-18.4-3.1-15.7-12.9-16.1-15.1h0Z"/>
        <path class="cls-6" d="M920.1,362.9c-.7-7.4,35.6-20,70.2-22.2,41.8-2.8,95.9,8.5,100.4,31.1,1.4,7-2.4,12.9-2.7,13.3-3.8,5.7-12.7,10.9-58.7,6.2-15.7-1.6-17-2.5-96-22.2-6.9-1.7-13-3.3-13.3-6.2h0Z"/>
      </g>
    </g>
  </g>
</svg>