<?xml version="1.0" encoding="UTF-8"?>
<svg xmlns="http://www.w3.org/2000/svg" version="1.1" xmlns:xlink="http://www.w3.org/1999/xlink" viewBox="0 0 1200 400">
  <defs>
    <style>
      .cls-1 {
        fill: url(#linear-gradient);
      }

      .cls-1, .cls-2, .cls-3, .cls-4, .cls-5, .cls-6, .cls-7, .cls-8 {
        stroke-width: 0px;
      }

      .cls-2 {
        fill: url(#linear-gradient-5);
      }

      .cls-9 {
        fill: #fff;
        stroke: #231f20;
        stroke-miterlimit: 10;
      }

      .cls-3 {
        fill: #fabebe;
      }

      .cls-4 {
        fill: url(#linear-gradient-2);
      }

      .cls-5 {
        fill: url(#linear-gradient-3);
      }

      .cls-6 {
        fill: url(#linear-gradient-4);
      }

      .cls-7 {
        fill: #f6bf85;
      }

      .cls-8 {
        fill: #aed5e2;
      }
    </style>
    <linearGradient id="linear-gradient" x1="629.89" y1="173.58" x2="637.05" y2="30.24" gradientUnits="userSpaceOnUse">
      <stop offset="0" stop-color="#fabebe"/>
      <stop offset="1" stop-color="#f6bf85"/>
    </linearGradient>
    <linearGradient id="linear-gradient-2" x1="88.47" y1="52.63" x2="92.69" y2="-3.46" gradientUnits="userSpaceOnUse">
      <stop offset="0" stop-color="#aed5e2"/>
      <stop offset="1" stop-color="#f6bf85"/>
    </linearGradient>
    <linearGradient id="linear-gradient-3" x1="1011.87" y1="63.39" x2="1017.96" y2="-17.69" xlink:href="#linear-gradient-2"/>
    <linearGradient id="linear-gradient-4" x1="1045.45" y1="338.53" x2="1052.68" y2="242.46" gradientUnits="userSpaceOnUse">
      <stop offset="0" stop-color="#fabebe"/>
      <stop offset="1" stop-color="#aed5e2"/>
    </linearGradient>
    <linearGradient id="linear-gradient-5" x1="185.01" y1="323.11" x2="191.32" y2="239.22" gradientUnits="userSpaceOnUse">
      <stop offset="0" stop-color="#fabebe"/>
      <stop offset="1" stop-color="#f6bf85"/>
    </linearGradient>
  </defs>
  <g id="Outer">
    <path class="cls-9" d="M1200,302.93"/>
    <path class="cls-3" d="M0,234.61c48.71,17,115.58,10.39,212.56,22.25,122.45,14.98,227.56,21.46,344,23.84,193.01,3.95,199.99-19.6,287.11-16.69,103.65,3.46,149.33-23.05,321.78,22.25,14.15,3.72,26.8,1.29,34.56,1.59V93.94c-69.75-18.96-124.78-18.93-160.78-15.9-137.5,11.58-184.92,82.66-340.44,100.94-14.51,1.71-70.18,7.68-141.33-.79-151.36-18.02-197.83-80.58-325.33-104.91-52.06-9.93-129.71-15.8-232.11,8.74"/>
  </g>
  <g id="Middle">
    <path class="cls-8" d="M0,94.73c114.76-6.13,211.02,6.59,289.89,26.23,51.41,12.8,62.65,20.38,120.89,34.97,61.24,15.34,171.24,42.9,285.33,36.56,171.63-9.54,208.06-87.78,358.22-76.3,63.41,4.85,113.75,23.14,145.67,37.35v104.11c-10.49-2.01-27.23-5.03-47.89-7.95-193.22-27.25-301.24,15.78-467.56,23.84-49.55,2.4-32.97-1.76-293.33-23.05C225.64,236.97,90.23,228.12,0,222.69"/>
  </g>
  <g id="Inner">
    <path class="cls-7" d="M0,188.52c200.61,9.96,452.11,56.89,561.89,65.17,157.26,11.86,146.33-15.85,269.33-13.51,158.19,3,286.69-5.41,368.78-12.72v-41.33c-50.86-13.84-130.22-30.53-227.44-29.41-150.68,1.75-188.96,44.51-331.56,47.69-104.49,2.33-126.03-19.69-311.11-50.07C200.24,133.06,87.6,123.64,0,119.37"/>
  </g>
  <g id="BLOBS">
    <path class="cls-1" d="M556.24,79.7c101.3-14.55,142.06-15.88,170.67,1.2,18.88,11.27,30.01,35.02,23.11,50.07-11.03,24.07-66.76,22.84-93.33,22.25-73.79-1.63-145.82-29.34-143.22-42.12,1.11-5.44,2.58-25.63,42.78-31.4Z"/>
    <path class="cls-4" d="M55.22,18.44C100.05,4.97,122.77-1.6,137.89,6.52c12.63,6.78,23.08,21.91,18.67,31-7.43,15.33-55.46,10.1-89.78,6.36-16.26-1.77-43.97-4.79-44.44-11.13-.14-1.92,2.13-5.06,32.89-14.31Z"/>
    <path class="cls-5" d="M921,28.77c-1.31-16.58,53.51-31.24,58.67-32.59,16.19-4.23,54.82-13.78,95.11,1.59,7.39,2.82,35.13,13.4,33.78,23.84-.54,4.13-5.62,8.24-83.56,23.05-33.56,6.38-49.34,8.79-69.33,3.97-5.14-1.24-33.74-8.13-34.67-19.87Z"/>
    <path class="cls-6" d="M939.67,278.37c.12-13.45,28.48-24.47,47.11-28.61,49.08-10.92,93.83,11.8,119.11,24.64,22.16,11.25,54.86,27.86,51.56,40.53-4.59,17.59-75.68,16.76-115.56,11.92-3.12-.38-41.51-5.39-80.89-27.82-16.9-9.62-21.38-15.28-21.33-20.66Z"/>
    <path class="cls-2" d="M93.44,271.97c-.54-8.8,37.5-19.32,69.33-23.05,45.95-5.38,114.75-.78,120.89,21.46,4,14.48-19.28,33.9-40,41.33-24.68,8.85-48.56,1.71-72.89-5.56-19.51-5.83-15.53-8.22-55.11-23.05-15.78-5.91-22.01-7.63-22.22-11.13Z"/>
  </g>
</svg>