<?xml version="1.0" encoding="UTF-8"?>
<svg id="Layer_1" data-name="Layer 1" xmlns="http://www.w3.org/2000/svg" xmlns:xlink="http://www.w3.org/1999/xlink" viewBox="0 0 1200.2 239.16">
  <defs>
    <style>
      .cls-1 {
        fill: url(#linear-gradient);
      }

      .cls-1, .cls-2, .cls-3, .cls-4, .cls-5, .cls-6 {
        stroke-width: 0px;
      }

      .cls-2 {
        fill: #afd5e3;
      }

      .cls-3 {
        fill: #f9bebe;
      }

      .cls-4 {
        fill: url(#linear-gradient-2);
      }

      .cls-5 {
        fill: #f5bf84;
      }

      .cls-6 {
        fill: url(#linear-gradient-3);
      }
    </style>
    <linearGradient id="linear-gradient" x1="177.53" y1="-245.13" x2="170.43" y2="-522.53" gradientTransform="translate(0 -344.9) scale(1 -1)" gradientUnits="userSpaceOnUse">
      <stop offset="0" stop-color="#afd5e3"/>
      <stop offset="1" stop-color="#f5bf84"/>
    </linearGradient>
    <linearGradient id="linear-gradient-2" x1="637.99" y1="-374.34" x2="634.39" y2="-505.84" gradientTransform="translate(0 -344.9) scale(1 -1)" gradientUnits="userSpaceOnUse">
      <stop offset="0" stop-color="#afd5e3"/>
      <stop offset="1" stop-color="#f9bebe"/>
    </linearGradient>
    <linearGradient id="linear-gradient-3" x1="1126.14" y1="-340.08" x2="1127.94" y2="-478.78" gradientTransform="translate(0 -344.9) scale(1 -1)" gradientUnits="userSpaceOnUse">
      <stop offset="0" stop-color="#afd5e3"/>
      <stop offset="1" stop-color="#f5bf84"/>
    </linearGradient>
  </defs>
  <g id="Layer_1-2" data-name="Layer 1-2">
    <g id="Outer">
      <path class="cls-2" d="m.15,151.4c65.7,20.3,163.6,28.2,292,32.2,116.3,3.6,155.4-.6,255,9,156.9,15.1,338.6-38.1,461-20,79.1,11.7,17-17,192-6V39.7c-19.9-9.6-55.2-24-100.3-28.4C959.25-2.5,884.24,1.56,734.24,2.66c-69.1.5-94.35,38.61-216.85,23.91-109.5-13.1-108.34,35.63-190.94,36.23C249.45,63.4,138.35,54.6.15,9.5"/>
    </g>
    <g id="Middle">
      <path class="cls-5" d="m.1,74.86c45.6,16.5,119,38.8,211.7,47.1,93.1,8.3,125.8-4.6,219.6,2.7,149,11.6,140.8,50.1,242.7,51.6,145.7,2,185.1-76.5,342.2-80,77.9-1.7,142,16,183.9,31.1v71.7c-18.8-2.2-34,.3-71.1,0-143.3-1.2-65.1-15-184-10.8-54.2,1.9-169.2,41.9-334,24.3-123.5-13.2-172.8-37.2-272-45-79.2-6.4-198.6,37.5-336,13"/>
    </g>
    <g id="Inner">
      <path class="cls-3" d="m.1,205.56c31.9,5.2,81.4,12.4,142.3,17.8,132.9,11.7,190.9,3,308.4,12.4,130.1,10.5,152.5-7,243.3-3.5,186.2,7.3,203.8-20.7,387-.7,48.6,5.3,96.1-12,118.9-6v-54.7c-112.3-35.9-200.9-37-259.4-32-161.1,13.7-225.9,68.2-360.9,39.1-72-15.5-67.6-23-152.9-37.3-86.5-14.5-126.3,3.3-227.6,1.8-47.6-.7-116-5.8-199.2-26.7"/>
    </g>
    <g id="Blobs">
      <path class="cls-1" d="m97.05,12.63c101.3-16.3,142.1-17.8,170.7,1.3,18.9,12.6,30,39.2,23.1,56-11,26.9-66.8,25.6-93.3,24.9-73.8-1.8-145.8-32.8-143.2-47.1,1.1-6.1,2.6-28.7,42.8-35.1,0,0-.1,0-.1,0Z"/>
      <path class="cls-4" d="m542.21,120.33c25.9,20.1,63.6,18.4,73.8,17.8,33.5-2,124.3-11.4,124.4-31.1,0-13.4-42.1-31.8-80.9-29.3-40.6,2.6-41.2,11.6-87.1,9.7-9.1-.4-38.9,13.2-40.9,18.7-1.7,4.6,7.7,11.9,10.7,14.2h0Z"/>
      <path class="cls-6" d="m1075.9,60.89c-.2,11.1,21.1,19.2,26.7,21.3,31,11.9,73.2,8.1,75.6-3.6,2.9-14.6-54.9-48.9-88-32.9-1.9.9-14.1,6.8-14.2,15.1h0l-.1.1h0Z"/>
    </g>
  </g>
</svg>