<?xml version="1.0" encoding="UTF-8"?>
<svg xmlns="http://www.w3.org/2000/svg" version="1.1" xmlns:xlink="http://www.w3.org/1999/xlink" viewBox="0 0 1200.2 239.2">
  <defs>
    <style>
      .cls-1 {
        fill: #f5bf84;
      }

      .cls-2 {
        fill: url(#linear-gradient-2);
      }

      .cls-3 {
        fill: url(#linear-gradient-3);
      }

      .cls-4 {
        fill: #afd5e3;
      }

      .cls-5 {
        fill: #f9bebe;
      }

      .cls-6 {
        fill: url(#linear-gradient);
      }
    </style>
    <linearGradient id="linear-gradient" x1="177.5" y1="335.8" x2="170.4" y2="613.2" gradientTransform="translate(0 -435.6)" gradientUnits="userSpaceOnUse">
      <stop offset="0" stop-color="#afd5e3"/>
      <stop offset="1" stop-color="#f5bf84"/>
    </linearGradient>
    <linearGradient id="linear-gradient-2" x1="638" y1="465" x2="634.4" y2="596.5" gradientTransform="translate(0 -435.6)" gradientUnits="userSpaceOnUse">
      <stop offset="0" stop-color="#afd5e3"/>
      <stop offset="1" stop-color="#f9bebe"/>
    </linearGradient>
    <linearGradient id="linear-gradient-3" x1="1126.1" y1="430.8" x2="1127.9" y2="569.5" gradientTransform="translate(0 -435.6)" gradientUnits="userSpaceOnUse">
      <stop offset="0" stop-color="#afd5e3"/>
      <stop offset="1" stop-color="#f5bf84"/>
    </linearGradient>
  </defs>
  <!-- Generator: Adobe Illustrator 28.7.1, SVG Export Plug-In . SVG Version: 1.2.0 Build 142)  -->
  <g>
    <g id="Layer_1">
      <g id="Layer_1-2">
        <g id="Outer">
          <path class="cls-4" d="M.2,151.4c65.7,20.3,163.6,28.2,292,32.2,116.3,3.6,155.4-.6,255,9,156.9,15.1,338.6-38.1,461-20,79.1,11.7,17-17,192-6V39.7c-19.9-9.6-55.2-24-100.3-28.4C959.2-2.5,884.2,1.6,734.2,2.7c-69.1.5-94.3,38.6-216.8,23.9-109.5-13.1-108.3,35.6-190.9,36.2C249.4,63.4,138.4,54.6.2,9.5"/>
        </g>
        <g id="Middle">
          <path class="cls-1" d="M.1,74.9c45.6,16.5,119,38.8,211.7,47.1,93.1,8.3,125.8-4.6,219.6,2.7,149,11.6,140.8,50.1,242.7,51.6,145.7,2,185.1-76.5,342.2-80,77.9-1.7,142,16,183.9,31.1v71.7c-18.8-2.2-34,.3-71.1,0-143.3-1.2-65.1-15-184-10.8-54.2,1.9-169.2,41.9-334,24.3-123.5-13.2-172.8-37.2-272-45-79.2-6.4-198.6,37.5-336,13"/>
        </g>
        <g id="Inner">
          <path class="cls-5" d="M0,264.7c31.9,5.2,78.1-30.9,139-25.5,132.9,11.7,186.5-9.4,304,0,130.1,10.5,174.2,2,265,5.5,186.2,7.3,207.8-7,391,13,48.6,5.3,78.2,13,101,19v-105.8c-112.3-35.9-200.9-37-259.4-32-161.1,13.7-225.9,68.2-360.9,39.1-72-15.5-67.6-23-152.9-37.3-86.5-14.5-126.3,3.3-227.6,1.8C151.6,141.8,83.2,136.7,0,115.8"/>
        </g>
        <g id="Blobs">
          <path class="cls-6" d="M97.1,12.6c101.3-16.3,142.1-17.8,170.7,1.3,18.9,12.6,30,39.2,23.1,56-11,26.9-66.8,25.6-93.3,24.9-73.8-1.8-145.8-32.8-143.2-47.1,1.1-6.1,2.6-28.7,42.8-35.1,0,0,0,0-.1,0Z"/>
          <path class="cls-2" d="M542.2,120.3c25.9,20.1,63.6,18.4,73.8,17.8,33.5-2,124.3-11.4,124.4-31.1,0-13.4-42.1-31.8-80.9-29.3-40.6,2.6-41.2,11.6-87.1,9.7-9.1-.4-38.9,13.2-40.9,18.7-1.7,4.6,7.7,11.9,10.7,14.2h0Z"/>
          <path class="cls-3" d="M1075.9,60.9c-.2,11.1,21.1,19.2,26.7,21.3,31,11.9,73.2,8.1,75.6-3.6,2.9-14.6-54.9-48.9-88-32.9-1.9.9-14.1,6.8-14.2,15.1h0Z"/>
        </g>
      </g>
    </g>
  </g>
</svg>