<?xml version="1.0" encoding="UTF-8"?>
<svg id="Layer_1" data-name="Layer 1" xmlns="http://www.w3.org/2000/svg" xmlns:xlink="http://www.w3.org/1999/xlink" viewBox="0 0 1200.2 386.7">
  <defs>
    <style>
      .cls-1 {
        fill: url(#linear-gradient);
      }

      .cls-1, .cls-2, .cls-3, .cls-4 {
        stroke-width: 0px;
      }

      .cls-2 {
        fill: #f6bf85;
      }

      .cls-3 {
        fill: url(#linear-gradient-2);
      }

      .cls-4 {
        fill: #fabebe;
      }
    </style>
    <linearGradient id="linear-gradient" x1="277.74" y1="-391.01" x2="284.04" y2="-495.91" gradientTransform="translate(0 -232.31) scale(1 -1)" gradientUnits="userSpaceOnUse">
      <stop offset="0" stop-color="#aed5e2"/>
      <stop offset="1" stop-color="#f6bf85"/>
    </linearGradient>
    <linearGradient id="linear-gradient-2" x1="1005.6" y1="-559.01" x2="1005.6" y2="-460.31" gradientTransform="translate(0 -232.31) scale(1 -1)" gradientUnits="userSpaceOnUse">
      <stop offset="0" stop-color="#f6bf85"/>
      <stop offset="1" stop-color="#fabebe"/>
    </linearGradient>
  </defs>
  <g id="Middle-2">
    <path class="cls-2" d="m.1,100.9c45.6,16.5,103.3.7,196,9,93.1,8.3,129.2-.6,223,6.7,149,11.6,163.1,41.8,265,43.3,145.7,2,180.9-45.5,338-49,77.9-1.7,136.2,6.9,178.1,22v61.4c-18.8-2.2-49-5-86.1-5.3-143.3-1.2-196.7,36.7-315.6,40.9-54.2,1.9-32.5-6.4-197.3-24-123.5-13.2-172.8-12.6-272-20.4C250,179.1,137.5,167.2.1,142.7"/>
  </g>
  <g id="Inner-2">
    <path class="cls-4" d="m.1,133.8c31.9,5.2,81.4,12.4,142.3,17.8,132.9,11.7,190.9,3,308.4,12.4,130.1,10.5,151.9,42.7,242.7,46.2,186.2,7.3,213.2-72.4,396.4-52.4,48.6,5.3,87.3,14.4,110.1,20.4V57.9c-112.2-35.9-197.4-14-255.9-9-161.1,13.7-207,15.1-342-14-72-15.5-87.7,30.1-173,15.8-86.5-14.5-130.7-5.3-232-6.8-47.6-.7-113.9,21-197.1,0"/>
  </g>
  <g id="Blobs">
    <path class="cls-1" d="m165.5,220.8c-1-6.3,31.8-19.1,63.1-24.9,53.1-9.9,92.7,2.2,132.4,14.2,32.1,9.7,37.1,15.8,37.3,20.4.5,10-21,19.4-34.7,23.1-6,1.7-22.6,5.5-66.7-3.6-37-7.6-46.3-1.5-74.7-5.2-12.8-1.7-19.2-5.4-40.8-9-18.4-3.1-15.7-12.9-16.1-15.1h.2v.1Z"/>
    <path class="cls-3" d="m920.2,246.7c-.7-7.4,35.6-20,70.2-22.2,41.8-2.8,95.9,8.5,100.4,31.1,1.4,7-2.4,12.9-2.7,13.3-3.8,5.7-12.7,10.9-58.7,6.2-15.7-1.6-17-2.5-96-22.2-6.9-1.7-13-3.3-13.3-6.2h.1Z"/>
  </g>
</svg>