<?xml version="1.0" encoding="UTF-8"?>
<svg id="Layer_1" data-name="Layer 1" xmlns="http://www.w3.org/2000/svg" viewBox="0 0 1200.2 100">
  <defs>
    <style>
      .cls-1 {
        fill: #afd5e3;
      }

      .cls-1, .cls-2, .cls-3 {
        stroke-width: 0px;
      }

      .cls-2 {
        fill: #f9bebe;
      }

      .cls-3 {
        fill: #f5bf84;
      }
    </style>
  </defs>
  <g id="Layer_1-2" data-name="Layer 1-2">
    <g id="Outer">
      <path class="cls-1" d="m.15-4.41C65.85,15.89,163.75,23.79,292.15,27.79c116.3,3.6,155.4-.6,255,9,156.9,15.1,338.6-38.1,461-20,79.1,11.7,17-17,192-6v-126.9c-19.9-9.6-55.2-24-100.3-28.4-140.6-13.8-195.8,86.9-345.8,88-69.1.5-55.3-20.9-177.8-35.6-109.5-13.1-167.2-1.5-249.8-.9-77,.6-188.1-8.2-326.3-53.3"/>
    </g>
    <g id="Middle">
      <path class="cls-3" d="m.15-117.91c45.6,16.5,119,38.8,211.7,47.1,93.1,8.3,125.8-4.6,219.6,2.7,149,11.6,140.8,50.1,242.7,51.6,145.7,2,185.1-76.5,342.2-80,77.9-1.7,142,16,183.9,31.1V6.29c-18.8-2.2-34,.3-71.1,0-143.3-1.2-65.1-15-184-10.8-54.2,1.9-169.2,41.9-334,24.3-123.5-13.2-172.8-37.2-272-45C259.95-31.61,140.55,12.29,3.15-12.21"/>
    </g>
    <g id="Inner">
      <path class="cls-2" d="m.15,12.79c31.9,5.2,81.4,12.4,142.3,17.8,132.9,11.7,190.9,3,308.4,12.4,130.1,10.5,152.5-7,243.3-3.5,186.2,7.3,203.8-20.7,387-.7,48.6,5.3,96.1-12,118.9-6V-21.91c-112.3-35.9-200.9-37-259.4-32-161.1,13.7-225.9,68.2-360.9,39.1-72-15.5-67.6-23-152.9-37.3-86.5-14.5-126.3,3.3-227.6,1.8-47.6-.7-116-5.8-199.2-26.7"/>
    </g>
  </g>
</svg>